<svg height="512" viewBox="0 0 42 58" width="512" xmlns="http://www.w3.org/2000/svg"><g id="007---Vegan-Certified" fill="none"><path id="Shape" d="m9.51 38.19-5.45 15.9c-.13164343.4077741.011142.8541005.3550225 1.1097485.34388051.255648.81241928.2637929 1.1649775.0202515l3.32-2.35c.26174754-.1881111.59812048-.2385202.90351203-.135401.30539157.1031192.54235277.3471217.63648797.655401l1.17 3.9c.1299224.4183192.5169695.7033942.955.7033942s.8250776-.285075.955-.7033942l5.51-16-1.68-4.53z" fill="#a59078"/><path id="Shape" d="m32.49 38.19 5.45 15.9c.1316434.4077741-.011142.8541005-.3550225 1.1097485s-.8124193.2637929-1.1649775.0202515l-3.32-2.35c-.2617475-.1881111-.5981205-.2385202-.903512-.135401-.3053916.1031192-.5423528.3471217-.636488.655401l-1.17 3.9c-.1299224.4183192-.5169695.7033942-.955.7033942s-.8250776-.285075-.955-.7033942l-5.48-16.01.38-4.53z" fill="#7f6e5d"/><path id="Shape" d="m39.53 26c.47-1.7 2.47-3.21 2.47-5s-2-3.3-2.47-5 .53-4-.34-5.54-3.39-1.78-4.63-3.02-1.56-3.75-3.06-4.63-3.82.12-5.54-.34-3.16-2.47-4.96-2.47-3.31 2-5 2.47-4-.53-5.54.34-1.78 3.39-3.02 4.63-3.75 1.56-4.63 3.05.12 3.82-.34 5.54-2.47 3.16-2.47 4.97 2 3.31 2.47 5-.53 4 .34 5.54 3.39 1.82 4.63 3 1.56 3.75 3.06 4.63 3.82-.12 5.54.34 3.16 2.49 4.96 2.49 3.31-2 5-2.47 4 .53 5.54-.34 1.82-3.39 3.06-4.63 3.75-1.53 4.63-3-.16-3.89.3-5.56z" fill="#7f6e5d"/><path id="Shape" d="m39.19 31.49c-.88 1.52-3.4 1.82-4.63 3s-1.56 3.8-3.06 4.68-3.82-.12-5.54.34-3.16 2.49-4.96 2.49v-42c1.8 0 3.31 2 5 2.47s4-.53 5.54.34 1.82 3.39 3.06 4.63 3.75 1.53 4.63 3.05-.12 3.82.34 5.54 2.43 3.16 2.43 4.97-2 3.31-2.47 5 .53 4-.34 5.49z" fill="#5f5346"/><path id="Shape" d="m35 21c0 7.7319865-6.2680135 14-14 14v-28c7.7319865 0 14 6.2680135 14 14z" fill="#24ae5f"/><path id="Shape" d="m21 7v28c-5.0017183.0000001-9.6234967-2.6683848-12.12435583-6.9999999-2.50085917-4.3316151-2.50085917-9.6683851 0-14.0000002 2.50085913-4.33161507 7.12263753-6.99999997 12.12435583-6.9999999z" fill="#4fba6f"/><path id="Shape" d="m17 30c-.5 0-1 0-1.52-.08-.3053742-.0313538-.5794275-.2012295-.7433524-.4607774-.163925-.2595479-.1995563-.5800059-.0966476-.8692226 1.5338801-3.6325147 4.0691549-6.7539201 7.31-9 .4452621-.3202702 1.0654037-.2221183 1.39.22.1570297.2146346.2220956.4829786.180811.7456989-.0412846.2627202-.1855188.4981742-.400811.6543011-2.496093 1.7877624-4.5487482 4.1243683-6 6.83 1.2166415-.0106079 2.4242961-.2096347 3.58-.59 2.3561123-.8433589 4.254703-2.6296285 5.24-4.93 1.1342926-2.4765413 1.401998-5.2627911.76-7.91-1.3130476.8112691-2.7750273 1.3518616-4.3 1.59-2.19.37-4 .77-5.48 2.27-1.2708786 1.2362933-1.96701 2.9476164-1.92 4.72.0006671.5333335-.4173332.9733337-.95 1-.5522847 0-1-.4477153-1-1-.0734345-2.3298009.8291572-4.5844677 2.49-6.22 1.93-1.91 4.11-2.41 6.56-2.82 1.6596126-.3069838 3.2205324-1.0102554 4.55-2.05.2485558-.1790938.5654906-.2343732.86-.15.2917472.0934941.528775.3086425.65.59 1.2906785 3.4768406 1.1394824 7.3251395-.42 10.69-1.2074343 2.8093297-3.5355192 4.98511-6.42 6-1.3885081.4900248-2.8476945.7501112-4.32.77z" fill="#fff"/></g></svg>